<?xml version="1.0" standalone="no"?>
<!DOCTYPE svg PUBLIC "-//W3C//DTD SVG 20010904//EN"
 "http://www.w3.org/TR/2001/REC-SVG-20010904/DTD/svg10.dtd">
<svg version="1.0" xmlns="http://www.w3.org/2000/svg"
 width="3447.000000pt" height="3447.000000pt" viewBox="0 0 3447.000000 3447.000000"
 preserveAspectRatio="xMidYMid meet">
<metadata>
Created by potrace 1.14, written by Peter Selinger 2001-2017
</metadata>
<g transform="translate(0.000000,3447.000000) scale(0.100000,-0.100000)"
fill="#000000" stroke="none">
<path d="M4274 23460 c-64 -9 -87 -22 -112 -62 -27 -44 -39 -86 -267 -918
-799 -2913 -930 -3407 -1056 -3985 -60 -275 -67 -366 -33 -412 34 -45 91 -80
224 -134 281 -113 607 -289 773 -416 94 -72 243 -219 306 -303 161 -214 228
-462 191 -711 -53 -365 -366 -842 -808 -1230 -340 -299 -732 -556 -1472 -964
-320 -177 -349 -195 -420 -265 -41 -41 -87 -97 -102 -125 -14 -27 -76 -194
-138 -370 -62 -176 -210 -592 -330 -925 -119 -333 -220 -622 -224 -642 -10
-54 13 -100 60 -123 37 -18 76 -19 849 -16 837 2 999 7 1440 41 252 19 498 35
1890 120 363 22 910 58 1215 80 789 56 1090 75 1725 110 604 32 1036 59 1455
90 146 11 393 29 550 40 255 18 1554 98 2925 180 275 16 515 32 532 35 36 6
57 35 48 64 -8 27 -22 30 -195 47 -85 8 -391 39 -680 69 -289 30 -1067 109
-1730 175 -663 66 -1680 170 -2260 230 -2131 221 -2590 268 -3140 320 -362 34
-661 64 -1091 109 -48 5 -109 19 -138 31 l-51 22 22 39 c30 53 62 82 188 169
491 338 975 811 1251 1222 405 602 562 1174 509 1859 -60 774 -366 1367 -954
1847 -217 177 -233 229 -166 518 11 45 63 295 115 556 191 942 377 1759 422
1856 29 61 72 94 148 114 66 17 553 17 1005 0 184 -6 484 -17 665 -22 795 -25
2628 -118 4025 -205 918 -57 2054 -113 2785 -135 456 -14 2148 -40 2615 -40
402 0 807 10 1465 35 215 8 813 22 1330 30 517 9 1030 20 1140 25 110 5 369
14 575 20 359 11 778 30 1800 85 511 27 553 30 624 51 55 16 121 21 816 69
765 53 917 63 1410 90 743 41 1096 66 2115 150 231 19 611 48 845 65 472 34
728 56 1505 129 292 28 742 69 1000 91 988 85 1033 90 1310 133 70 11 80 15
83 35 3 21 0 22 -80 24 -46 0 -1615 2 -3488 3 -2295 1 -3545 5 -3835 13 -1203
32 -1601 42 -2050 52 -269 6 -602 17 -740 25 -137 8 -558 19 -935 25 -637 9
-849 15 -1330 40 -102 5 -412 14 -690 20 -775 16 -1224 35 -1410 61 -41 6
-104 14 -140 19 -36 5 -153 11 -260 15 -107 3 -260 12 -340 20 -221 22 -455
34 -900 45 -223 5 -441 12 -485 15 -44 3 -181 12 -305 20 -344 23 -586 33
-1175 50 -309 9 -823 33 -1200 55 -775 47 -1097 64 -1560 85 -187 8 -488 22
-670 30 -181 8 -519 28 -750 45 -611 43 -996 66 -1660 100 -565 28 -1064 61
-3085 204 -800 57 -1086 75 -1375 89 -38 2 -93 0 -121 -3z"/>
<path d="M22319 20795 c-1106 -179 -1912 -1339 -2168 -3120 -47 -326 -55 -446
-55 -835 -1 -299 3 -405 17 -525 50 -420 138 -740 282 -1030 228 -456 554
-708 977 -755 320 -36 725 62 1041 250 167 99 271 182 437 349 262 263 453
541 636 927 424 893 645 2184 529 3094 -103 802 -433 1354 -936 1566 -159 67
-259 86 -479 90 -134 2 -222 -1 -281 -11z m1 -1886 c231 -37 384 -229 458
-574 24 -110 26 -141 26 -360 0 -258 -11 -373 -60 -595 -139 -624 -474 -1163
-819 -1315 -322 -143 -583 106 -671 640 -25 152 -26 484 -1 645 136 877 497
1488 920 1559 72 12 74 12 147 0z"/>
<path d="M27225 20794 c-1016 -157 -1795 -1167 -2104 -2729 -93 -470 -125
-785 -125 -1230 0 -323 6 -433 40 -665 79 -551 267 -1002 532 -1282 307 -324
687 -428 1186 -327 1064 215 1866 1425 2130 3214 46 315 60 499 60 825 1 324
-8 455 -50 700 -144 856 -567 1391 -1183 1494 -116 20 -360 20 -486 0z m-7
-1884 c257 -37 432 -287 482 -690 15 -123 12 -405 -5 -555 -83 -710 -443
-1388 -842 -1589 -370 -185 -663 143 -714 801 -19 247 16 551 101 880 170 654
488 1095 831 1152 73 12 75 12 147 1z"/>
<path d="M31385 20733 c-212 -17 -420 -49 -619 -94 -71 -16 -131 -31 -133 -32
-5 -5 -151 -690 -242 -1132 -241 -1175 -496 -2564 -786 -4290 -41 -247 -78
-463 -81 -479 l-6 -29 568 6 c712 9 1081 23 1537 59 147 11 148 12 163 39 27
54 213 628 292 904 99 346 164 586 160 591 -2 1 -70 -8 -151 -21 -331 -54
-807 -106 -1124 -121 l-141 -7 19 89 c322 1451 658 2806 1035 4171 52 187 94
344 94 347 0 6 -511 5 -585 -1z"/>
<path d="M9902 20714 c-509 -55 -973 -236 -1322 -514 -97 -77 -263 -245 -333
-337 -211 -275 -356 -654 -402 -1049 -44 -381 23 -790 180 -1092 103 -198 249
-370 493 -581 135 -116 192 -177 267 -284 93 -133 130 -248 124 -388 -3 -71
-9 -95 -37 -152 -79 -159 -256 -265 -498 -298 -112 -15 -434 -6 -594 16 -63 9
-166 27 -228 41 -63 14 -116 23 -118 21 -7 -7 -156 -1359 -150 -1364 16 -16
305 -75 486 -99 168 -23 609 -26 770 -6 440 56 829 207 1135 441 261 199 501
522 603 812 81 230 113 513 78 690 -21 105 -71 228 -130 322 -109 175 -359
436 -571 597 -268 203 -401 352 -447 503 -18 60 -20 86 -15 186 12 252 107
464 291 646 133 131 277 190 529 216 181 18 457 -3 585 -46 33 -11 44 -11 47
-2 17 55 286 1670 279 1677 -10 9 -206 34 -384 50 -157 14 -489 11 -638 -6z"/>
<path d="M14215 20679 c-621 -31 -1131 -252 -1574 -684 -305 -297 -523 -605
-731 -1030 -114 -232 -170 -371 -251 -618 -180 -545 -268 -1123 -256 -1671 5
-260 20 -401 62 -611 162 -804 608 -1344 1215 -1470 114 -24 283 -35 383 -24
274 28 553 124 748 257 l74 50 87 209 c160 384 261 683 383 1132 30 113 55
206 55 207 0 1 -55 -35 -122 -81 -342 -230 -611 -360 -853 -410 -158 -33 -399
-17 -540 36 -145 54 -270 204 -333 399 -86 267 -64 636 65 1060 212 702 647
1218 1172 1389 249 82 506 80 759 -4 57 -19 105 -35 106 -35 2 0 8 26 15 58
31 140 150 614 233 921 161 605 218 823 218 836 0 8 -24 17 -63 24 -313 54
-583 73 -852 60z"/>
<path d="M16705 20679 c-103 -9 -394 -55 -403 -64 -12 -12 -281 -1541 -437
-2480 -166 -1005 -549 -3444 -542 -3452 1 0 76 6 167 14 181 17 641 23 787 10
83 -7 92 -6 97 10 7 21 213 1152 286 1573 29 162 55 298 59 302 10 12 924 21
939 10 11 -7 -1 -98 -57 -468 -111 -721 -211 -1397 -208 -1401 2 -1 118 4 258
13 263 17 598 14 708 -6 30 -5 57 -7 59 -5 3 2 22 100 43 217 452 2511 711
3864 1000 5226 52 248 88 437 83 442 -16 15 -325 34 -539 33 -211 -1 -399 -18
-535 -49 l-66 -15 -82 -412 c-103 -516 -181 -929 -275 -1447 l-74 -405 -79 -6
c-43 -4 -171 -12 -284 -19 -113 -7 -287 -20 -387 -29 -164 -15 -183 -15 -183
-1 0 23 342 1741 416 2089 35 167 62 307 58 310 -19 19 -616 26 -809 10z"/>
<path d="M27280 13569 c-110 -143 -231 -320 -333 -487 -45 -74 -83 -130 -84
-125 -3 8 135 587 153 646 5 16 -7 17 -158 16 -90 0 -181 -3 -203 -7 l-39 -7
-28 -140 c-55 -272 -158 -825 -233 -1250 -41 -236 -78 -442 -81 -457 l-5 -27
165 -3 c158 -3 165 -2 170 17 3 11 26 119 51 240 54 262 105 477 114 488 4 4
33 -82 65 -190 61 -208 181 -580 194 -600 6 -9 35 -2 112 28 58 21 136 48 174
59 37 10 70 21 73 24 2 2 -29 98 -70 212 -108 300 -229 683 -221 697 29 48
310 414 390 506 55 62 112 128 127 147 l29 34 -53 75 c-52 75 -190 215 -213
215 -6 0 -49 -50 -96 -111z"/>
<path d="M19738 13650 c-37 -5 -80 -11 -96 -14 l-28 -7 -59 -297 c-32 -163
-75 -396 -95 -517 -28 -165 -39 -211 -43 -185 -7 42 -35 557 -44 804 l-6 179
-166 -6 c-91 -3 -182 -10 -201 -14 -41 -10 -34 13 -104 -353 -60 -316 -125
-688 -185 -1075 -73 -467 -70 -447 -54 -440 8 3 81 5 162 5 l148 0 22 133 c27
165 117 643 135 717 l13 55 6 -45 c6 -36 25 -311 59 -825 3 -46 -8 -44 146
-27 56 7 138 12 180 12 l78 0 27 163 c67 384 280 1410 351 1683 l13 51 -60 7
c-70 7 -107 6 -199 -4z"/>
<path d="M20895 13654 c-27 -2 -120 -9 -205 -15 -85 -6 -162 -15 -171 -19 -22
-12 -63 -201 -92 -427 l-13 -101 141 6 142 5 -53 -324 c-83 -501 -172 -1044
-170 -1044 0 0 76 1 168 3 l167 3 10 52 c91 478 256 1294 263 1302 5 6 64 9
142 8 l133 -2 7 52 c4 28 25 148 48 265 24 129 37 217 31 223 -9 9 -457 20
-548 13z"/>
<path d="M23075 13654 c-130 -8 -341 -26 -361 -30 -13 -4 -24 -16 -27 -32 -4
-15 -15 -70 -26 -122 -11 -53 -27 -145 -36 -205 -8 -61 -18 -124 -20 -141 l-5
-31 140 5 c112 4 140 2 140 -8 0 -8 -25 -165 -55 -349 -100 -612 -164 -1006
-162 -1006 1 0 77 1 169 3 l166 3 6 37 c15 88 259 1317 263 1321 2 3 65 5 140
5 l136 1 19 110 c10 61 32 179 49 264 16 85 26 158 22 162 -9 9 -455 19 -558
13z"/>
<path d="M29935 13654 c-129 -8 -341 -26 -361 -30 -30 -8 -58 -137 -109 -495
l-5 -36 140 5 c102 3 140 2 140 -7 0 -6 -27 -177 -60 -379 -138 -842 -159
-976 -157 -977 1 0 77 1 169 3 l166 3 6 37 c14 85 259 1317 263 1321 2 3 65 5
140 5 l136 1 23 135 c12 74 34 193 48 265 14 71 22 133 18 137 -8 8 -458 18
-557 12z"/>
<path d="M15005 13639 c-154 -10 -338 -38 -346 -51 -8 -12 -76 -341 -129 -623
-40 -211 -210 -1211 -210 -1235 0 -17 667 -8 699 9 14 8 30 41 50 104 42 132
101 337 101 351 0 10 -13 11 -52 5 -72 -12 -389 -31 -396 -25 -3 3 8 66 23
140 l28 134 116 7 c64 4 157 5 208 2 81 -6 92 -4 97 11 3 9 19 82 36 162 16
80 33 155 35 168 5 22 5 22 -127 22 -73 0 -166 -5 -207 -10 -41 -6 -76 -8 -79
-6 -5 5 49 272 58 286 9 14 185 29 335 30 l120 0 68 256 c37 142 65 260 61
263 -9 9 -355 10 -489 0z"/>
<path d="M17945 13639 c-134 -9 -337 -37 -346 -47 -14 -14 -115 -523 -188
-937 -61 -348 -151 -895 -151 -918 0 -20 2 -20 340 -14 193 3 347 10 358 16
10 5 24 27 30 48 26 81 122 405 122 412 0 5 -23 4 -50 0 -67 -11 -390 -30
-399 -24 -7 4 45 264 55 275 3 2 97 4 209 5 195 0 204 1 208 20 33 149 67 319
67 332 0 14 -19 15 -177 10 -98 -4 -190 -9 -205 -13 -36 -8 -36 2 0 166 l27
124 40 9 c22 4 125 11 229 15 l190 7 67 255 c37 140 65 257 62 260 -8 9 -362
8 -488 -1z"/>
<path d="M28542 13639 c-142 -9 -340 -37 -348 -50 -21 -34 -149 -713 -253
-1339 -45 -267 -84 -496 -87 -509 l-5 -24 343 6 c189 3 351 9 360 12 12 5 31
48 57 129 31 93 101 332 101 341 0 1 -26 -2 -57 -6 -72 -10 -394 -31 -399 -26
-5 5 52 267 61 275 3 4 97 7 208 8 l202 2 31 140 c18 77 35 159 39 181 l7 41
-124 0 c-67 0 -161 -5 -207 -10 -47 -5 -86 -9 -87 -7 -1 1 11 68 28 148 l31
147 41 6 c23 3 125 9 229 13 103 3 187 6 187 7 0 1 31 116 68 258 l68 256 -29
6 c-39 8 -311 5 -465 -5z"/>
<path d="M31470 13631 c-231 -51 -402 -175 -490 -356 -51 -104 -70 -187 -70
-305 0 -197 44 -293 202 -450 112 -110 138 -152 138 -218 0 -133 -169 -186
-432 -137 -45 9 -40 25 -68 -229 -15 -142 -17 -191 -9 -197 27 -16 183 -34
294 -32 223 3 377 62 510 197 86 87 124 151 150 251 46 181 -9 301 -219 470
-112 90 -141 135 -139 216 2 102 73 212 162 252 53 23 187 33 251 19 24 -6 46
-10 47 -8 10 10 91 522 84 529 -5 5 -81 11 -168 13 -128 3 -174 0 -243 -15z"/>
<path d="M16752 13630 c-45 -4 -85 -10 -89 -13 -15 -16 -173 -455 -269 -747
-58 -179 -110 -334 -115 -345 -17 -36 22 517 62 883 11 107 18 197 14 200 -9
9 -302 7 -337 -1 -25 -7 -26 -9 -32 -109 -15 -239 -26 -748 -26 -1238 l0 -525
188 3 c103 2 190 7 193 10 3 4 34 88 69 187 229 655 539 1458 640 1655 l19 37
-76 7 c-86 7 -122 6 -241 -4z"/>
<path d="M24298 13630 c-113 -14 -125 -18 -131 -48 -2 -15 -34 -171 -70 -347
-78 -382 -139 -719 -207 -1145 -27 -173 -51 -324 -53 -335 -3 -19 2 -20 170
-20 l173 0 10 50 c5 28 51 259 101 515 89 460 191 956 247 1201 l29 127 -36 6
c-46 7 -147 6 -233 -4z"/>
<path d="M25702 13629 c-164 -21 -296 -85 -424 -208 -247 -235 -399 -625 -400
-1026 -1 -195 35 -349 108 -471 136 -228 390 -297 618 -171 l60 33 47 120 c42
104 121 354 114 362 -1 1 -41 -22 -89 -52 -140 -88 -263 -117 -372 -87 -71 19
-125 100 -139 207 -13 104 38 309 113 444 47 85 169 208 242 242 104 49 170
54 311 22 24 -5 27 -3 32 33 4 21 36 148 72 283 36 134 61 247 57 251 -9 9
-187 29 -244 28 -24 -1 -71 -5 -106 -10z"/>
</g>
</svg>
